<?xml version='1.0' encoding='utf-8'?>
<svg xmlns="http://www.w3.org/2000/svg" xmlns:ns1="http://sodipodi.sourceforge.net/DTD/sodipodi-0.dtd" width="1160.5484" height="553.0143" viewBox="0 0 1160.5484 553.0143" version="1.1">
  <g transform="matrix(1, 0, 0.433, -0.25, 4.8235, 521.0143)" data-layer="L1" data-index="1">
    <path d="M201.0049,151.8725 L201.0049,548.0992 L-115.4789,874.6609 L-120.5253,879.5233 L-124.8035,882.9561 L-127.6618,884.4363 L-128.6658,883.7393 L-128.6658,496.5692 L-127.6618,493.8004 L-124.8035,489.382 L-120.5253,483.986 L-115.4789,478.4342 Z" fill="#a9d8bb" stroke="#000000" stroke-width="3.77329" fill-opacity="0.85" stroke-linejoin="round" data-layer="L1" data-role="footpocket" data-join-x="200" id="path1" data-footpocket-angle="-25" />
    <path d="M350.5664,0 L712,0 L715.0615,0.609 L717.6569,2.3431 L719.391,4.9385 L720,8 L720,692 L719.391,695.0615 L717.6569,697.6569 L715.0615,699.391 L712,700 L349.5334,700 L200,549.7357 L200,152.7995 Z" fill="#a9d8bb" stroke="#000000" stroke-width="5" fill-opacity="0.85" stroke-linejoin="round" data-layer="L1" data-role="blade" id="path2" ns1:nodetypes="ccccccccccccccc" />
  </g>
  <g transform="matrix(1, 0, 0.433, -0.25, 4.8235, 461.0143)" data-layer="L2" data-index="2">
    <path d="M201.0048,150.5642 L201.0048,546.7909 L-115.4789,873.3525 L-120.5253,878.2149 L-124.8035,881.6477 L-127.6618,883.128 L-128.6658,882.4309 L-128.6658,495.2608 L-127.6618,492.492 L-124.8035,488.0736 L-120.5253,482.6776 L-115.4789,477.1258 Z" fill="#d2c589" stroke="#000000" stroke-width="3.77329" fill-opacity="0.85" stroke-linejoin="round" data-layer="L2" data-role="footpocket" data-join-x="200" id="path1" data-footpocket-angle="-25" />
    <path d="M350.0541,0 L492,0 L495.0615,0.609 L497.6569,2.3431 L499.391,4.9385 L500,8 L500,692 L499.391,695.0615 L497.6569,697.6569 L495.0615,699.391 L492,700 L349.8238,700 L200,547.427 L200,151.3747 Z" fill="#d2c589" stroke="#000000" stroke-width="5" fill-opacity="0.85" stroke-linejoin="round" data-layer="L2" data-role="blade" id="path2" ns1:nodetypes="ccccccccccccccc" />
  </g>
  <g transform="matrix(1, 0, 0.433, -0.25, 4.8235, 401.0143)" data-layer="L3" data-index="3">
    <path d="M201.0049,153.3198 L201.0049,549.5465 L-115.4789,876.1082 L-120.5253,880.9706 L-124.8035,884.4034 L-127.6618,885.8836 L-128.6658,885.1866 L-128.6658,498.0165 L-127.6618,495.2477 L-124.8035,490.8293 L-120.5253,485.4333 L-115.4789,479.8815 Z" fill="#e3e5e5" stroke="#000000" stroke-width="3.7733" fill-opacity="0.85" stroke-linejoin="round" data-layer="L3" data-role="footpocket" data-join-x="200" id="path1" data-footpocket-angle="-25" />
    <path d="M349.9939,0 L712,0 L715.0615,0.609 L717.6569,2.3431 L719.391,4.9385 L720,8 L721.0233,50.1396 L350.4426,153.491 L720.7166,242.5158 L354.2355,345.8629 L720.4001,441.0256 L361.0638,552.5669 L720.0967,631.3543 L720,692 L719.391,695.0615 L717.6569,697.6569 L715.0615,699.391 L712,700 L350.3686,700 L200,550.4722 L200,153.6376 Z" fill="#e3e5e5" stroke="#000000" stroke-width="5" fill-opacity="0.85" stroke-linejoin="round" data-layer="L3" data-role="blade" id="path2" ns1:nodetypes="cccccccccccccccccccccc" />
  </g>
  <g transform="matrix(1, 0, 0.433, -0.25, 4.8235, 341.0143)" data-layer="L4" data-index="4">
    <path d="M201.0048,150.1608 L201.0048,546.3875 L-115.4789,872.9491 L-120.5253,877.8115 L-124.8035,881.2443 L-127.6618,882.7245 L-128.6658,882.0275 L-128.6658,494.8574 L-127.6618,492.0886 L-124.8035,487.6702 L-120.5253,482.2742 L-115.4789,476.7224 Z" fill="#84d6f4" stroke="#000000" stroke-width="3.7733" fill-opacity="0.85" stroke-linejoin="round" data-layer="L4" data-role="footpocket" data-join-x="200" id="path1" data-footpocket-angle="-25" />
    <path d="M349.8598,0 L566.0915,1.1848 L297.9786,153.994 L564.3314,254.2093 L306.5724,357.0415 L564.8692,449.8793 L311.3457,545.0938 L566.1911,699.1321 L349.9294,700 L200,547.7156 L200,150.6695 Z" fill="#84d6f4" stroke="#000000" stroke-width="5" fill-opacity="0.85" stroke-linejoin="round" data-layer="L4" data-role="blade" id="path2" ns1:nodetypes="cccccccccccc" />
  </g>
  <g transform="matrix(1, 0, 0.433, -0.25, 4.8235, 281.0143)" data-layer="L5" data-index="5">
    <path d="M201.0048,151.3167 L201.0048,547.5434 L-115.4789,874.105 L-120.5253,878.9674 L-124.8035,882.4002 L-127.6618,883.8804 L-128.6658,883.1834 L-128.6658,496.0133 L-127.6618,493.2445 L-124.8035,488.8261 L-120.5253,483.4301 L-115.4789,477.8783 Z" fill="#9da584" stroke="#000000" stroke-width="3.7733" fill-opacity="0.85" stroke-linejoin="round" data-layer="L5" data-role="footpocket" data-join-x="200" id="path1" data-footpocket-angle="-25" />
    <path d="M334.8458,0 L342,0 L345.0615,0.609 L347.6569,2.3431 L349.391,4.9385 L350,8 L350,692 L349.391,695.0615 L347.6569,697.6569 L345.0615,699.391 L342,700 L336.6198,700 L200,548.1714 L200,151.6785 Z" fill="#9da584" stroke="#000000" stroke-width="5" fill-opacity="0.85" stroke-linejoin="round" data-layer="L5" data-role="blade" id="path2" ns1:nodetypes="ccccccccccccccc" />
  </g>
  <g transform="matrix(1, 0, 0.433, -0.25, 4.8235, 221.0143)" data-layer="L6" data-index="6">
    <path d="M201.0049,151.4933 L201.0049,547.72 L-115.4789,874.2817 L-120.5253,879.1441 L-124.8035,882.5769 L-127.6618,884.0571 L-128.6658,883.3601 L-128.6658,496.19 L-127.6618,493.4212 L-124.8035,489.0028 L-120.5253,483.6068 L-115.4789,478.055 Z" fill="#b7bcdd" stroke="#000000" stroke-width="3.77329" fill-opacity="0.85" stroke-linejoin="round" data-layer="L6" data-role="footpocket" data-join-x="200" id="path1" data-footpocket-angle="-25" />
    <path d="M349.8512,0 L712,0 L715.0615,0.609 L717.6569,2.3431 L719.391,4.9385 L720,8 L720,692 L719.391,695.0615 L717.6569,697.6569 L715.0615,699.391 L712,700 L350.3152,700 L200,548.9045 L200,152.1899 Z" fill="#b7bcdd" stroke="#000000" stroke-width="5" fill-opacity="0.85" stroke-linejoin="round" data-layer="L6" data-role="blade" id="path2" ns1:nodetypes="ccccccccccccccc" />
  </g>
</svg>