<?xml version='1.0' encoding='utf-8'?>
<svg xmlns="http://www.w3.org/2000/svg" width="795.2938" height="332.3531" viewBox="0 0 795.2938 332.3531" version="1.1">
  <g transform="matrix(1, 0, 0.433, -0.25, 33.4047, 300.3531)" data-layer="L1" data-index="1">
    <path d="M170,0 L170,200 L-95.4053,473.8566 L-100.4209,478.423 L-104.673,481.0764 L-107.514,481.4124 L-108.5117,479.3804 L-108.5117,295.3804 L-107.514,291.2894 L-104.673,285.7626 L-100.4209,279.641 L-95.4053,273.8566 Z" fill="#a9d8bb" stroke="#000000" stroke-width="5" fill-opacity="0.85" stroke-linejoin="round" data-layer="L1" data-role="footpocket" data-join-x="170" data-footpocket-angle="-25" />
    <path d="M170,0 L592,0 L595.0615,0.609 L597.6569,2.3431 L599.391,4.9385 L600,8 L600,192 L599.391,195.0615 L597.6569,197.6569 L595.0615,199.391 L592,200 L170,200 Z" fill="#a9d8bb" stroke="#000000" stroke-width="5" fill-opacity="0.85" stroke-linejoin="round" data-layer="L1" data-role="blade" />
  </g>
  <g transform="matrix(1, 0, 0.433, -0.25, 33.4047, 240.3531)" data-layer="L2" data-index="2">
    <path d="M170,0 L170,200 L-95.4053,473.8566 L-100.4209,478.423 L-104.673,481.0764 L-107.514,481.4124 L-108.5117,479.3804 L-108.5117,295.3804 L-107.514,291.2894 L-104.673,285.7626 L-100.4209,279.641 L-95.4053,273.8566 Z" fill="#d2c589" stroke="#000000" stroke-width="5" fill-opacity="0.85" stroke-linejoin="round" data-layer="L2" data-role="footpocket" data-join-x="170" data-footpocket-angle="-25" />
    <path d="M170,0 L342,0 L345.0615,0.609 L347.6569,2.3431 L349.391,4.9385 L350,8 L350,192 L349.391,195.0615 L347.6569,197.6569 L345.0615,199.391 L342,200 L170,200 Z" fill="#d2c589" stroke="#000000" stroke-width="5" fill-opacity="0.85" stroke-linejoin="round" data-layer="L2" data-role="blade" />
  </g>
  <g transform="matrix(1, 0, 0.433, -0.25, 33.4047, 180.3531)" data-layer="L3" data-index="3">
    <path d="M170,0 L170,200 L-95.4053,473.8566 L-100.4209,478.423 L-104.673,481.0764 L-107.514,481.4124 L-108.5117,479.3804 L-108.5117,295.3804 L-107.514,291.2894 L-104.673,285.7626 L-100.4209,279.641 L-95.4053,273.8566 Z" fill="#e3e5e5" stroke="#000000" stroke-width="5" fill-opacity="0.85" stroke-linejoin="round" data-layer="L3" data-role="footpocket" data-join-x="170" data-footpocket-angle="-25" />
    <path d="M170,0 L442,0 L445.0615,0.609 L447.6569,2.3431 L449.391,4.9385 L450,8 L450,192 L449.391,195.0615 L447.6569,197.6569 L445.0615,199.391 L442,200 L170,200 Z" fill="#e3e5e5" stroke="#000000" stroke-width="5" fill-opacity="0.85" stroke-linejoin="round" data-layer="L3" data-role="blade" />
  </g>
  <g transform="matrix(1, 0, 0.433, -0.25, 33.4047, 120.3531)" data-layer="L4" data-index="4">
    <path d="M170,0 L170,200 L-95.4053,473.8566 L-100.4209,478.423 L-104.673,481.0764 L-107.514,481.4124 L-108.5117,479.3804 L-108.5117,295.3804 L-107.514,291.2894 L-104.673,285.7626 L-100.4209,279.641 L-95.4053,273.8566 Z" fill="#84d6f4" stroke="#000000" stroke-width="5" fill-opacity="0.85" stroke-linejoin="round" data-layer="L4" data-role="footpocket" data-join-x="170" data-footpocket-angle="-25" />
    <path d="M170,0 L592,0 L595.0615,0.609 L597.6569,2.3431 L599.391,4.9385 L600,8 L600,192 L599.391,195.0615 L597.6569,197.6569 L595.0615,199.391 L592,200 L170,200 Z" fill="#84d6f4" stroke="#000000" stroke-width="5" fill-opacity="0.85" stroke-linejoin="round" data-layer="L4" data-role="blade" />
  </g>
</svg>