<svg width="420" height="320" viewBox="0 0 420 320" fill="none" xmlns="http://www.w3.org/2000/svg">
  <rect width="420" height="320" rx="32" fill="url(#bg)"/>
  <g filter="url(#shadow)">
    <path d="M190 70c10-18 36-18 46 0l76 138c10 18-2 40-23 40h-152c-21 0-33-22-23-40l76-138z" fill="url(#body)"/>
    <path d="M210 88c4-8 16-8 20 0l62 112c5 8-1 20-10 20h-124c-9 0-15-12-10-20l62-112z" fill="url(#inner)"/>
    <path d="M210 128c10 0 18 8 18 18v54c0 10-8 18-18 18s-18-8-18-18v-54c0-10 8-18 18-18z" fill="url(#bridge)"/>
    <path d="M170 196c-10 0-20 4-27 11l-9 9c-9 9-24 9-33 0l-3-3c-9-9-9-24 0-33l37-37c9-9 24-9 33 0l2 2" stroke="url(#padLeft)" stroke-width="22" stroke-linecap="round"/>
    <path d="M250 196c10 0 20 4 27 11l9 9c9 9 24 9 33 0l3-3c9-9 9-24 0-33l-37-37c-9-9-24-9-33 0l-2 2" stroke="url(#padRight)" stroke-width="22" stroke-linecap="round"/>
    <path d="M210 88c-4-8-16-8-20 0l-62 112c-5 8 1 20 10 20h20l52-132z" fill="url(#shine)" opacity="0.55"/>
  </g>
  <defs>
    <linearGradient id="bg" x1="52" y1="24" x2="368" y2="300" gradientUnits="userSpaceOnUse">
      <stop stop-color="#011428"/>
      <stop offset="1" stop-color="#052B4A"/>
    </linearGradient>
    <linearGradient id="body" x1="118" y1="80" x2="302" y2="260" gradientUnits="userSpaceOnUse">
      <stop stop-color="#8D5BFF"/>
      <stop offset="1" stop-color="#5230FF"/>
    </linearGradient>
    <linearGradient id="inner" x1="150" y1="112" x2="270" y2="248" gradientUnits="userSpaceOnUse">
      <stop stop-color="#C7B5FF"/>
      <stop offset="1" stop-color="#6445FF"/>
    </linearGradient>
    <linearGradient id="bridge" x1="210" y1="128" x2="210" y2="218" gradientUnits="userSpaceOnUse">
      <stop stop-color="#FFE6FF"/>
      <stop offset="1" stop-color="#C7B5FF"/>
    </linearGradient>
    <linearGradient id="padLeft" x1="120" y1="176" x2="168" y2="232" gradientUnits="userSpaceOnUse">
      <stop stop-color="#FF9E7A"/>
      <stop offset="1" stop-color="#FF5D7A"/>
    </linearGradient>
    <linearGradient id="padRight" x1="252" y1="176" x2="300" y2="232" gradientUnits="userSpaceOnUse">
      <stop stop-color="#FF9E7A"/>
      <stop offset="1" stop-color="#FF5D7A"/>
    </linearGradient>
    <linearGradient id="shine" x1="150" y1="110" x2="210" y2="210" gradientUnits="userSpaceOnUse">
      <stop stop-color="#E4DAFF" stop-opacity="0.65"/>
      <stop offset="1" stop-color="#6445FF" stop-opacity="0.25"/>
    </linearGradient>
    <filter id="shadow" x="62" y="40" width="296" height="252" filterUnits="userSpaceOnUse" color-interpolation-filters="sRGB">
      <feDropShadow dx="0" dy="22" stdDeviation="22" flood-color="#020914" flood-opacity="0.35"/>
    </filter>
  </defs>
</svg>
