<svg width="480" height="360" viewBox="0 0 480 360" fill="none" xmlns="http://www.w3.org/2000/svg">
  <rect width="480" height="360" rx="36" fill="url(#bg)"/>
  <g filter="url(#shadow)">
    <path d="M146 90c32-6 66 6 88 30 24 26 26 65 12 96-15 35-51 58-89 63-30 3-66-8-88-32-22-23-27-54-18-83 11-36 41-68 85-74z" fill="url(#finBodyLeft)"/>
    <path d="M334 90c32-6 66 6 88 30 24 26 26 65 12 96-15 35-51 58-89 63-30 3-66-8-88-32-22-23-27-54-18-83 11-36 41-68 85-74z" fill="url(#finBodyRight)"/>
    <path d="M108 155c14-29 45-48 76-51l-6 122c-28-2-58-19-70-44-6-13-7-18 0-27z" fill="url(#bladeHighlight)" opacity="0.7"/>
    <path d="M296 155c14-29 45-48 76-51l-6 122c-28-2-58-19-70-44-6-13-7-18 0-27z" fill="url(#bladeHighlight)" opacity="0.7"/>
    <path d="M144 116c-6-19 7-42 28-50 16-7 36-3 48 10 15 17 12 39-10 54-18 12-53 9-66-14z" fill="#101731" opacity="0.65"/>
    <path d="M332 116c-6-19 7-42 28-50 16-7 36-3 48 10 15 17 12 39-10 54-18 12-53 9-66-14z" fill="#101731" opacity="0.65"/>
    <path d="M148 122c14-2 25 3 32 13 8 11 7 25 1 39-8 17-24 30-40 32-13 2-27-2-36-12-9-9-11-24-6-36 6-17 21-33 49-36z" fill="url(#footPocket)"/>
    <path d="M336 122c14-2 25 3 32 13 8 11 7 25 1 39-8 17-24 30-40 32-13 2-27-2-36-12-9-9-11-24-6-36 6-17 21-33 49-36z" fill="url(#footPocket)"/>
    <path d="M128 182c25 9 47 9 68 0" stroke="#76D5FF" stroke-width="6" stroke-linecap="round" opacity="0.7"/>
    <path d="M316 182c25 9 47 9 68 0" stroke="#76D5FF" stroke-width="6" stroke-linecap="round" opacity="0.7"/>
  </g>
  <defs>
    <linearGradient id="bg" x1="48" y1="36" x2="432" y2="324" gradientUnits="userSpaceOnUse">
      <stop stop-color="#0D1A40"/>
      <stop offset="1" stop-color="#172B65"/>
    </linearGradient>
    <linearGradient id="finBodyLeft" x1="76" y1="90" x2="266" y2="287" gradientUnits="userSpaceOnUse">
      <stop stop-color="#4CC7FF"/>
      <stop offset="1" stop-color="#1F68FF"/>
    </linearGradient>
    <linearGradient id="finBodyRight" x1="264" y1="90" x2="454" y2="287" gradientUnits="userSpaceOnUse">
      <stop stop-color="#4CC7FF"/>
      <stop offset="1" stop-color="#1F68FF"/>
    </linearGradient>
    <linearGradient id="bladeHighlight" x1="96" y1="140" x2="202" y2="260" gradientUnits="userSpaceOnUse">
      <stop stop-color="#99E5FF" stop-opacity="0.8"/>
      <stop offset="1" stop-color="#1F68FF" stop-opacity="0.3"/>
    </linearGradient>
    <linearGradient id="footPocket" x1="128" y1="128" x2="204" y2="212" gradientUnits="userSpaceOnUse">
      <stop stop-color="#1A2A50"/>
      <stop offset="1" stop-color="#0E1632"/>
    </linearGradient>
    <filter id="shadow" x="60" y="56" width="360" height="260" filterUnits="userSpaceOnUse" color-interpolation-filters="sRGB">
      <feDropShadow dx="0" dy="24" stdDeviation="24" flood-color="#020914" flood-opacity="0.35"/>
    </filter>
  </defs>
</svg>
