<?xml version='1.0' encoding='utf-8'?>
<svg xmlns="http://www.w3.org/2000/svg" xmlns:ns1="http://sodipodi.sourceforge.net/DTD/sodipodi-0.dtd" width="1050.9804" height="456.5793" viewBox="0 0 1050.9804 456.5793" version="1.1">
  <g transform="matrix(1, 0, 0.433, -0.25, 56.6747, 424.5793)" data-layer="L1" data-index="1">
    <path d="M180,0 L180,200 L-101.7883,490.7614 L-106.804,495.3277 L-111.056,497.9811 L-113.897,498.3172 L-114.8947,496.2851 L-114.8947,312.2851 L-113.897,308.1942 L-111.056,302.6673 L-106.804,296.5457 L-101.7883,290.7614 Z" fill="#a9d8bb" stroke="#000000" stroke-width="5" fill-opacity="0.85" stroke-linejoin="round" data-layer="L1" data-role="footpocket" data-join-x="180" data-footpocket-angle="-25" />
    <path d="M180,0 L792,0 L795.0615,0.609 L797.6569,2.3431 L799.391,4.9385 L800,8 L800,192 L799.391,195.0615 L797.6569,197.6569 L795.0615,199.391 L792,200 L180,200 Z" fill="#a9d8bb" stroke="#000000" stroke-width="5" fill-opacity="0.85" stroke-linejoin="round" data-layer="L1" data-role="blade" />
  </g>
  <g transform="matrix(1, 0, 0.433, -0.25, 56.6747, 364.5793)" data-layer="L2" data-index="2">
    <path d="M180,0 L180,153.837 L-113.897,498.3172 L-114.8947,496.2851 L-114.8947,312.2851 L-113.897,308.1942 L-111.056,302.6673 L-106.804,296.5457 L-101.7883,290.7614 Z" fill="#d2c589" stroke="#000000" stroke-width="5" fill-opacity="0.85" stroke-linejoin="round" data-layer="L2" data-role="footpocket" data-join-x="180" id="path1" ns1:nodetypes="cccccccccc" data-footpocket-angle="-25" />
    <path d="M180,0 L792,0 L795.0615,0.609 L797.6569,2.3431 L180,153.837 Z" fill="#d2c589" stroke="#000000" stroke-width="5" fill-opacity="0.85" stroke-linejoin="round" data-layer="L2" data-role="blade" id="path2" ns1:nodetypes="cccccc" />
  </g>
  <g transform="matrix(1, 0, 0.433, -0.25, 56.6747, 304.5793)" data-layer="L2" data-index="3">
    <path d="M180,44.2656 L180,200 L-101.7883,490.7614 L-106.804,495.3277 L-111.056,497.9811 L-113.897,498.3172 L-114.8947,496.2851 L-114.8947,312.2851 L-113.897,308.1942 L-114.8947,304.2851 L101.0796,108.5199 L179.0023,40.3566 Z" fill="#d2c589" stroke="#000000" stroke-width="5" fill-opacity="0.85" stroke-linejoin="round" data-layer="L2" data-role="footpocket" data-join-x="180" id="path1" ns1:nodetypes="cccccccccc" data-footpocket-angle="-25" />
    <path d="M180,45.092 L801.3023,190.9748 L800,192 L799.391,195.0615 L797.6569,197.6569 L795.0615,199.391 L792,200 L180,200 Z" fill="#d2c589" stroke="#000000" stroke-width="5" fill-opacity="0.85" stroke-linejoin="round" data-layer="L2" data-role="blade" id="path2" ns1:nodetypes="ccccccccc" />
  </g>
  <g transform="matrix(1, 0, 0.433, -0.25, 56.6747, 244.5793)" data-layer="L3" data-index="4">
    <path d="M180,0 L180,200 L-101.7883,490.7614 L-106.804,495.3277 L-111.056,497.9811 L-113.897,498.3172 L-114.8947,496.2851 L-114.8947,312.2851 L-113.897,308.1942 L-111.056,302.6673 L-106.804,296.5457 L-101.7883,290.7614 Z" fill="#e3e5e5" stroke="#000000" stroke-width="5" fill-opacity="0.85" stroke-linejoin="round" data-layer="L3" data-role="footpocket" data-join-x="180" data-footpocket-angle="-25" />
    <path d="M180,0 L592,0 L595.0615,0.609 L597.6569,2.3431 L599.391,4.9385 L600,8 L600,192 L599.391,195.0615 L597.6569,197.6569 L595.0615,199.391 L592,200 L180,200 Z" fill="#e3e5e5" stroke="#000000" stroke-width="5" fill-opacity="0.85" stroke-linejoin="round" data-layer="L3" data-role="blade" />
  </g>
  <g transform="matrix(1, 0, 0.433, -0.25, 56.6747, 184.5793)" data-layer="L4" data-index="5">
    <path d="M180,0 L180,200 L-101.7883,490.7614 L-106.804,495.3277 L-111.056,497.9811 L-113.897,498.3172 L-114.8947,496.2851 L-114.8947,312.2851 L-113.897,308.1942 L-111.056,302.6673 L-106.804,296.5457 L-101.7883,290.7614 Z" fill="#84d6f4" stroke="#000000" stroke-width="5" fill-opacity="0.85" stroke-linejoin="round" data-layer="L4" data-role="footpocket" data-join-x="180" data-footpocket-angle="-25" />
    <path d="M180,0 L392,0 L395.0615,0.609 L397.6569,2.3431 L399.391,4.9385 L400,8 L400,192 L399.391,195.0615 L397.6569,197.6569 L395.0615,199.391 L392,200 L180,200 Z" fill="#84d6f4" stroke="#000000" stroke-width="5" fill-opacity="0.85" stroke-linejoin="round" data-layer="L4" data-role="blade" />
  </g>
  <g transform="matrix(1, 0, 0.433, -0.25, 56.6747, 124.5793)" data-layer="L5" data-index="6">
    <path d="M180,0 L180,200 L-101.7883,490.7614 L-106.804,495.3277 L-111.056,497.9811 L-113.897,498.3172 L-114.8947,496.2851 L-114.8947,312.2851 L-113.897,308.1942 L-111.056,302.6673 L-106.804,296.5457 L-101.7883,290.7614 Z" fill="#9da584" stroke="#000000" stroke-width="5" fill-opacity="0.85" stroke-linejoin="round" data-layer="L5" data-role="footpocket" data-join-x="180" data-footpocket-angle="-25" />
    <path d="M180,0 L792,0 L795.0615,0.609 L797.6569,2.3431 L799.391,4.9385 L800,8 L800,192 L799.391,195.0615 L797.6569,197.6569 L795.0615,199.391 L792,200 L180,200 Z" fill="#9da584" stroke="#000000" stroke-width="5" fill-opacity="0.85" stroke-linejoin="round" data-layer="L5" data-role="blade" />
  </g>
</svg>