<?xml version='1.0' encoding='utf-8'?>
<svg xmlns="http://www.w3.org/2000/svg" width="2200" height="700" viewBox="0 0 2200 700" version="1.1"><rect x="0" y="0" width="2200" height="700" fill="#f8f9fa" stroke="#b0b0b0" stroke-width="1.5" /><g id="cutting-plan"><g transform="translate(0, 0)" data-layer="L3"><path d="M200.6134,153.6376 L350.6073,0 L712.6134,0 L715.6749,0.609 L718.2703,2.3431 L720.0044,4.9385 L720.6134,8 L721.6366,50.1396 L351.0559,153.491 L721.3299,242.5158 L354.8488,345.8629 L721.0135,441.0256 L361.6772,552.5669 L720.71,631.3543 L720.6134,692 L720.0044,695.0615 L718.2703,697.6569 L715.6749,699.391 L712.6134,700 L350.982,700 L200.6134,550.4722 L8.0491,550.5834 L4.9688,550.2387 L2.3575,549.2571 L0.6127,547.788 L0,546.0551 L0,158.885 L0.6127,157.1521 L2.3575,155.683 L4.9688,154.7014 L8.0491,154.3567 L201.2267,154.3567 Z" fill="#e3e5e5" stroke="#000000" stroke-width="3.7733" fill-opacity="0.85" stroke-linejoin="round" data-layer="L3" data-role="layer" id="path1" />
    <text x="360.8183" y="350" text-anchor="middle" dominant-baseline="middle" font-size="24" fill="#1a1a1a">L3</text></g><g transform="translate(721.6366, 0)" data-layer="L2"><path d="M200.6134,151.3747 L350.6674,0 L492.6134,0 L495.6749,0.609 L498.2703,2.3431 L500.0044,4.9385 L500.6134,8 L500.6134,692 L500.0044,695.0615 L498.2703,697.6569 L495.6749,699.391 L492.6134,700 L350.4371,700 L200.6134,547.427 L8.0491,547.8277 L4.9688,547.483 L2.3575,546.5014 L0.6127,545.0324 L0,543.2994 L0,156.1293 L0.6127,154.3964 L2.3575,152.9273 L4.9688,151.9457 L8.0491,151.601 L201.2267,151.601 Z" fill="#d2c589" stroke="#000000" stroke-width="3.77329" fill-opacity="0.85" stroke-linejoin="round" data-layer="L2" data-role="layer" id="path1" />
    <text x="250.3067" y="350" text-anchor="middle" dominant-baseline="middle" font-size="24" fill="#1a1a1a">L2</text></g><g transform="translate(1222.25, 0)" data-layer="L4"><path d="M200.6134,150.6695 L350.4732,0 L566.7048,1.1848 L298.5919,153.994 L564.9447,254.2093 L307.1858,357.0415 L565.4826,449.8793 L311.959,545.0938 L566.8044,699.1321 L350.5428,700 L200.6134,547.7156 L8.0491,547.4243 L4.9688,547.0796 L2.3575,546.098 L0.6127,544.6289 L0,542.896 L0,155.7259 L0.6127,153.993 L2.3575,152.5239 L4.9688,151.5423 L8.0491,151.1976 L201.2267,151.1976 Z" fill="#84d6f4" stroke="#000000" stroke-width="3.7733" fill-opacity="0.85" stroke-linejoin="round" data-layer="L4" data-role="layer" id="path1" />
    <text x="283.4022" y="350" text-anchor="middle" dominant-baseline="middle" font-size="24" fill="#1a1a1a">L4</text></g><g transform="translate(1789.0544, 0)" data-layer="L5"><path d="M200.6134,151.6785 L335.4592,0 L342.6134,0 L345.6749,0.609 L348.2703,2.3431 L350.0044,4.9385 L350.6134,8 L350.6134,692 L350.0044,695.0615 L348.2703,697.6569 L345.6749,699.391 L342.6134,700 L337.2332,700 L200.6134,548.1714 L8.0491,548.5802 L4.9688,548.2355 L2.3575,547.2539 L0.6127,545.7848 L0,544.0519 L0,156.8818 L0.6127,155.1489 L2.3575,153.6798 L4.9688,152.6982 L8.0491,152.3535 L201.2267,152.3535 Z" fill="#9da584" stroke="#000000" stroke-width="3.7733" fill-opacity="0.85" stroke-linejoin="round" data-layer="L5" data-role="layer" id="path1" />
    <text x="175.3067" y="350" text-anchor="middle" dominant-baseline="middle" font-size="24" fill="#1a1a1a">L5</text></g></g></svg>