<?xml version='1.0' encoding='utf-8'?>
<svg xmlns="http://www.w3.org/2000/svg" width="1400" height="720.6134" viewBox="0 0 1400 720.6134" version="1.1"><rect x="0" y="0" width="1400" height="720.6134" fill="#f8f9fa" stroke="#b0b0b0" stroke-width="1.5" /><g id="cutting-plan"><g transform="translate(0, 0)" data-layer="L1" data-rotated="true"><g transform="translate(700, 0) rotate(90)"><path d="M200.6134,152.7995 L351.1797,0 L712.6134,0 L715.6749,0.609 L718.2703,2.3431 L720.0044,4.9385 L720.6134,8 L720.6134,692 L720.0044,695.0615 L718.2703,697.6569 L715.6749,699.391 L712.6134,700 L350.1468,700 L200.6134,549.7357 L8.0491,549.1361 L4.9688,548.7914 L2.3575,547.8098 L0.6127,546.3407 L0,544.6078 L0,157.4377 L0.6127,155.7048 L2.3575,154.2357 L4.9688,153.2541 L8.0491,152.9094 L201.2267,152.9094 Z" fill="#a9d8bb" stroke="#000000" stroke-width="3.77329" fill-opacity="0.85" stroke-linejoin="round" data-layer="L1" data-role="layer" id="path1" />
    </g><text x="350" y="360.3067" text-anchor="middle" dominant-baseline="middle" font-size="24" fill="#1a1a1a">L1</text></g><g transform="translate(700, 0)" data-layer="L6" data-rotated="true"><g transform="translate(700, 0) rotate(90)"><path d="M200.6134,152.1899 L350.4646,0 L712.6134,0 L715.6749,0.609 L718.2703,2.3431 L720.0044,4.9385 L720.6134,8 L720.6134,692 L720.0044,695.0615 L718.2703,697.6569 L715.6749,699.391 L712.6134,700 L350.9286,700 L200.6134,548.9045 L8.0491,548.7569 L4.9688,548.4122 L2.3575,547.4306 L0.6127,545.9615 L0,544.2286 L0,157.0585 L0.6127,155.3256 L2.3575,153.8565 L4.9688,152.8749 L8.0491,152.5302 L201.2267,152.5302 Z" fill="#b7bcdd" stroke="#000000" stroke-width="3.77329" fill-opacity="0.85" stroke-linejoin="round" data-layer="L6" data-role="layer" id="path1" />
    </g><text x="350" y="360.3067" text-anchor="middle" dominant-baseline="middle" font-size="24" fill="#1a1a1a">L6</text></g></g></svg>