<?xml version='1.0' encoding='utf-8'?>
<svg xmlns="http://www.w3.org/2000/svg" width="800" height="800" viewBox="0 0 800 800" version="1.1"><g transform="matrix(0,1,1,0,0,0)"><rect x="0" y="0" width="800" height="800" fill="#f8f9fa" stroke="#b0b0b0" stroke-width="1.5" /><g id="cutting-plan"><g transform="translate(0, 0)" data-layer="L1"><path d="M180,0 L792,0 L795.0615,0.609 L797.6569,2.3431 L799.391,4.9385 L800,8 L800,192 L799.391,195.0615 L797.6569,197.6569 L795.0615,199.391 L792,200 L180,200 L8,200 L4.9385,199.391 L2.3431,197.6569 L0.609,195.0615 L0,192 L0,8 L0.609,4.9385 L2.3431,2.3431 L4.9385,0.609 L8,0 L180,0 Z" fill="#a9d8bb" stroke="#000000" stroke-width="5" fill-opacity="0.85" stroke-linejoin="round" data-layer="L1" data-role="layer" />
    <g transform="matrix(0,1,1,0,0,0)"><text x="100" y="400" text-anchor="middle" dominant-baseline="middle" font-size="24" fill="#1a1a1a">L1</text></g></g><g transform="translate(0, 200)" data-layer="L5"><path d="M180,0 L792,0 L795.0615,0.609 L797.6569,2.3431 L799.391,4.9385 L800,8 L800,192 L799.391,195.0615 L797.6569,197.6569 L795.0615,199.391 L792,200 L180,200 L8,200 L4.9385,199.391 L2.3431,197.6569 L0.609,195.0615 L0,192 L0,8 L0.609,4.9385 L2.3431,2.3431 L4.9385,0.609 L8,0 L180,0 Z" fill="#9da584" stroke="#000000" stroke-width="5" fill-opacity="0.85" stroke-linejoin="round" data-layer="L5" data-role="layer" />
    <g transform="matrix(0,1,1,0,0,0)"><text x="100" y="400" text-anchor="middle" dominant-baseline="middle" font-size="24" fill="#1a1a1a">L5</text></g></g><g transform="translate(0, 400)" data-layer="L1 #2"><path d="M180,0 L792,0 L795.0615,0.609 L797.6569,2.3431 L799.391,4.9385 L800,8 L800,192 L799.391,195.0615 L797.6569,197.6569 L795.0615,199.391 L792,200 L180,200 L8,200 L4.9385,199.391 L2.3431,197.6569 L0.609,195.0615 L0,192 L0,8 L0.609,4.9385 L2.3431,2.3431 L4.9385,0.609 L8,0 L180,0 Z" fill="#a9d8bb" stroke="#000000" stroke-width="5" fill-opacity="0.85" stroke-linejoin="round" data-layer="L1" data-role="layer" />
    <g transform="matrix(0,1,1,0,0,0)"><text x="100" y="400" text-anchor="middle" dominant-baseline="middle" font-size="24" fill="#1a1a1a">L1 #2</text></g></g><g transform="translate(0, 600)" data-layer="L5 #2"><path d="M180,0 L792,0 L795.0615,0.609 L797.6569,2.3431 L799.391,4.9385 L800,8 L800,192 L799.391,195.0615 L797.6569,197.6569 L795.0615,199.391 L792,200 L180,200 L8,200 L4.9385,199.391 L2.3431,197.6569 L0.609,195.0615 L0,192 L0,8 L0.609,4.9385 L2.3431,2.3431 L4.9385,0.609 L8,0 L180,0 Z" fill="#9da584" stroke="#000000" stroke-width="5" fill-opacity="0.85" stroke-linejoin="round" data-layer="L5" data-role="layer" />
    <g transform="matrix(0,1,1,0,0,0)"><text x="100" y="400" text-anchor="middle" dominant-baseline="middle" font-size="24" fill="#1a1a1a">L5 #2</text></g></g></g></g></svg>