<?xml version='1.0' encoding='utf-8'?>
<svg xmlns="http://www.w3.org/2000/svg" width="1003.0254" height="300" viewBox="0 0 1003.0254 300" version="1.1"><g transform="matrix(0,1,1,0,0,0)"><rect x="0" y="0" width="300" height="1003.0254" fill="#f8f9fa" stroke="#b0b0b0" stroke-width="1.5" /><g id="cutting-plan"><g transform="translate(0, 0)" data-layer="L3" data-rotated="true"><g transform="translate(96.5161, 0) rotate(90)"><path d="M149.9966,0 L393.4642,0 L396.5442,0.2939 L399.1554,1.1307 L400.9,2.3832 L401.5127,3.8606 L401.5127,92.6554 L400.9,94.1329 L399.1554,95.3853 L396.5442,96.2222 L393.4642,96.5161 L149.9966,96.5161 L8.0805,96.5127 L4.9882,96.2188 L2.3667,95.382 L0.6151,94.1296 L0,92.6523 L0,3.8638 L0.6151,2.3864 L2.3667,1.1341 L4.9882,0.2973 L8.0805,0.0034 L151.5093,0.0034 Z" fill="#e3e5e5" stroke="#000000" stroke-width="3.49071" fill-opacity="0.85" stroke-linejoin="round" data-layer="L3" data-role="layer" id="path1" />
    </g><g transform="matrix(0,1,1,0,0,0)"><text x="200.7563" y="48.258" text-anchor="middle" dominant-baseline="middle" font-size="24" fill="#1a1a1a">L3</text></g></g><g transform="translate(0, 401.5127)" data-layer="L3" data-rotated="true"><g transform="translate(96.5161, 0) rotate(90)"><path d="M149.9966,0 L393.4642,0 L396.5442,0.2939 L399.1554,1.1307 L400.9,2.3832 L401.5127,3.8606 L401.5127,92.6554 L400.9,94.1329 L399.1554,95.3853 L396.5442,96.2222 L393.4642,96.5161 L149.9966,96.5161 L8.0805,96.5127 L4.9882,96.2188 L2.3667,95.382 L0.6151,94.1296 L0,92.6523 L0,3.8638 L0.6151,2.3865 L2.3667,1.1341 L4.9882,0.2973 L8.0805,0.0034 L151.5093,0.0034 Z" fill="#e3e5e5" stroke="#000000" stroke-width="3.49071" fill-opacity="0.85" stroke-linejoin="round" data-layer="L3" data-role="layer" id="path1-3" transform="translate(0.5,1.5)" />
    </g><g transform="matrix(0,1,1,0,0,0)"><text x="200.7563" y="48.258" text-anchor="middle" dominant-baseline="middle" font-size="24" fill="#1a1a1a">L3</text></g></g><g transform="translate(0, 803.0254)" data-layer="L2"><path d="M150,0 L292,0 L295.0615,0.609 L297.6569,2.3431 L299.391,4.9385 L300,8 L300,192 L299.391,195.0615 L297.6569,197.6569 L295.0615,199.391 L292,200 L150,200 L8,200 L4.9385,199.391 L2.3431,197.6569 L0.609,195.0615 L0,192 L0,8 L0.609,4.9385 L2.3431,2.3431 L4.9385,0.609 L8,0 L150,0 Z" fill="#d2c589" stroke="#000000" stroke-width="5" fill-opacity="0.85" stroke-linejoin="round" data-layer="L2" data-role="layer" />
    <g transform="matrix(0,1,1,0,0,0)"><text x="100" y="150" text-anchor="middle" dominant-baseline="middle" font-size="24" fill="#1a1a1a">L2</text></g></g><g transform="translate(96.5161, 0)" data-layer="L1" data-rotated="true"><g transform="translate(200, 0) rotate(90)"><path d="M150,0 L392,0 L395.0615,0.609 L397.6569,2.3431 L399.391,4.9385 L400,8 L400,192 L399.391,195.0615 L397.6569,197.6569 L395.0615,199.391 L392,200 L150,200 L8,200 L4.9385,199.391 L2.3431,197.6569 L0.609,195.0615 L0,192 L0,8 L0.609,4.9385 L2.3431,2.3431 L4.9385,0.609 L8,0 L150,0 Z" fill="#a9d8bb" stroke="#000000" stroke-width="5" fill-opacity="0.85" stroke-linejoin="round" data-layer="L1" data-role="layer" />
    </g><g transform="matrix(0,1,1,0,0,0)"><text x="200" y="100" text-anchor="middle" dominant-baseline="middle" font-size="24" fill="#1a1a1a">L1</text></g></g><g transform="translate(96.5161, 401.5127)" data-layer="L4" data-rotated="true"><g transform="translate(200, 0) rotate(90)"><path d="M150,0 L392,0 L395.0615,0.609 L397.6569,2.3431 L399.391,4.9385 L400,8 L400,192 L399.391,195.0615 L397.6569,197.6569 L395.0615,199.391 L392,200 L150,200 L8,200 L4.9385,199.391 L2.3431,197.6569 L0.609,195.0615 L0,192 L0,8 L0.609,4.9385 L2.3431,2.3431 L4.9385,0.609 L8,0 L150,0 Z" fill="#84d6f4" stroke="#000000" stroke-width="5" fill-opacity="0.85" stroke-linejoin="round" data-layer="L4" data-role="layer" />
    </g><g transform="matrix(0,1,1,0,0,0)"><text x="200" y="100" text-anchor="middle" dominant-baseline="middle" font-size="24" fill="#1a1a1a">L4</text></g></g></g></g></svg>