<?xml version='1.0' encoding='utf-8'?>
<svg xmlns="http://www.w3.org/2000/svg" xmlns:ns1="http://sodipodi.sourceforge.net/DTD/sodipodi-0.dtd" width="1240" height="392" viewBox="0 0 1240 392" version="1.1">
  <g transform="translate(220 72)" opacity="0.25" data-layer="L1" data-index="1">
    <path d="M180,0 L180,200 L8,200 L4.9385,199.391 L2.3431,197.6569 L0.609,195.0615 L0,192 L0,8 L0.609,4.9385 L2.3431,2.3431 L4.9385,0.609 L8,0 Z" fill="#000000" stroke="#000000" stroke-width="5" fill-opacity="0.85" stroke-linejoin="round" data-layer="L1" data-role="footpocket" data-join-x="180" />
    <path d="M180,0 L792,0 L795.0615,0.609 L797.6569,2.3431 L799.391,4.9385 L800,8 L800,192 L799.391,195.0615 L797.6569,197.6569 L795.0615,199.391 L792,200 L180,200 Z" fill="#000000" stroke="#000000" stroke-width="5" fill-opacity="0.85" stroke-linejoin="round" data-layer="L1" data-role="blade" />
  </g>
  <g transform="translate(220 72)" opacity="0.25" data-layer="L2" data-index="2">
    <path d="M 180,0 V 153.83695 L 0.609,195.0615 0,192 V 8 L 0.609,4.9385 2.3431,2.3431 4.9385,0.609 8,0 Z" fill="#000000" stroke="#000000" stroke-width="5" fill-opacity="0.85" stroke-linejoin="round" data-layer="L2" data-role="footpocket" data-join-x="180" id="path1" ns1:nodetypes="cccccccccc" />
    <path d="m 180,0 h 612 l 3.0615,0.609 2.5954,1.7341 L 180,153.83696 Z" fill="#000000" stroke="#000000" stroke-width="5" fill-opacity="0.85" stroke-linejoin="round" data-layer="L2" data-role="blade" id="path2" ns1:nodetypes="cccccc" />
  </g>
  <g transform="translate(220 72)" opacity="0.25" data-layer="L2" data-index="3">
    <path d="M 180,44.265632 V 200 H 8 L 4.9385,199.391 2.3431,197.6569 0.609,195.0615 0,192 V 8 L 0.609,4.9385 c 0,0 131.828,27.086397 179.391,39.327132 z" fill="#000000" stroke="#000000" stroke-width="5" fill-opacity="0.85" stroke-linejoin="round" data-layer="L2" data-role="footpocket" data-join-x="180" id="path1" ns1:nodetypes="cccccccccc" />
    <path d="M 180,45.09201 801.30231,190.97477 800,192 l -0.609,3.0615 -1.7341,2.5954 -2.5954,1.7341 L 792,200 H 180 Z" fill="#000000" stroke="#000000" stroke-width="5" fill-opacity="0.85" stroke-linejoin="round" data-layer="L2" data-role="blade" id="path2" ns1:nodetypes="ccccccccc" />
  </g>
  <g transform="translate(220 72)" opacity="0.25" data-layer="L3" data-index="4">
    <path d="M180,0 L180,200 L8,200 L4.9385,199.391 L2.3431,197.6569 L0.609,195.0615 L0,192 L0,8 L0.609,4.9385 L2.3431,2.3431 L4.9385,0.609 L8,0 Z" fill="#000000" stroke="#000000" stroke-width="5" fill-opacity="0.85" stroke-linejoin="round" data-layer="L3" data-role="footpocket" data-join-x="180" />
    <path d="M180,0 L592,0 L595.0615,0.609 L597.6569,2.3431 L599.391,4.9385 L600,8 L600,192 L599.391,195.0615 L597.6569,197.6569 L595.0615,199.391 L592,200 L180,200 Z" fill="#000000" stroke="#000000" stroke-width="5" fill-opacity="0.85" stroke-linejoin="round" data-layer="L3" data-role="blade" />
  </g>
  <g transform="translate(220 72)" opacity="0.25" data-layer="L4" data-index="5">
    <path d="M180,0 L180,200 L8,200 L4.9385,199.391 L2.3431,197.6569 L0.609,195.0615 L0,192 L0,8 L0.609,4.9385 L2.3431,2.3431 L4.9385,0.609 L8,0 Z" fill="#000000" stroke="#000000" stroke-width="5" fill-opacity="0.85" stroke-linejoin="round" data-layer="L4" data-role="footpocket" data-join-x="180" />
    <path d="M180,0 L392,0 L395.0615,0.609 L397.6569,2.3431 L399.391,4.9385 L400,8 L400,192 L399.391,195.0615 L397.6569,197.6569 L395.0615,199.391 L392,200 L180,200 Z" fill="#000000" stroke="#000000" stroke-width="5" fill-opacity="0.85" stroke-linejoin="round" data-layer="L4" data-role="blade" />
  </g>
  <g transform="translate(220 72)" opacity="0.25" data-layer="L5" data-index="6">
    <path d="M180,0 L180,200 L8,200 L4.9385,199.391 L2.3431,197.6569 L0.609,195.0615 L0,192 L0,8 L0.609,4.9385 L2.3431,2.3431 L4.9385,0.609 L8,0 Z" fill="#000000" stroke="#000000" stroke-width="5" fill-opacity="0.85" stroke-linejoin="round" data-layer="L5" data-role="footpocket" data-join-x="180" />
    <path d="M180,0 L792,0 L795.0615,0.609 L797.6569,2.3431 L799.391,4.9385 L800,8 L800,192 L799.391,195.0615 L797.6569,197.6569 L795.0615,199.391 L792,200 L180,200 Z" fill="#000000" stroke="#000000" stroke-width="5" fill-opacity="0.85" stroke-linejoin="round" data-layer="L5" data-role="blade" />
  </g>
  <g data-role="dimension" data-orientation="horizontal">
    <line x1="220" y1="272" x2="220" y2="300" stroke="#1a1a1a" stroke-width="1.5" fill="none" />
    <line x1="1020" y1="272" x2="1020" y2="300" stroke="#1a1a1a" stroke-width="1.5" fill="none" />
    <line x1="220" y1="300" x2="1020" y2="300" stroke="#1a1a1a" stroke-width="1.5" fill="none" />
    <path d="M 220 300 l 6 -6 M 220 300 l 6 6" stroke="#1a1a1a" stroke-width="1.5" fill="none" />
    <path d="M 1020 300 l -6 -6 M 1020 300 l -6 6" stroke="#1a1a1a" stroke-width="1.5" fill="none" />
    <text x="620" y="288" font-family="'DejaVu Sans', Arial, sans-serif" font-size="16" text-anchor="middle">Laminate length</text>
    <text x="620" y="314" font-family="'DejaVu Sans', Arial, sans-serif" font-size="16" text-anchor="middle">800 mm</text>
  </g>
  <g data-role="dimension" data-orientation="horizontal">
    <line x1="220" y1="72" x2="220" y2="28" stroke="#1a1a1a" stroke-width="1.5" fill="none" />
    <line x1="400" y1="72" x2="400" y2="28" stroke="#1a1a1a" stroke-width="1.5" fill="none" />
    <line x1="220" y1="28" x2="400" y2="28" stroke="#1a1a1a" stroke-width="1.5" fill="none" />
    <path d="M 220 28 l 6 -6 M 220 28 l 6 6" stroke="#1a1a1a" stroke-width="1.5" fill="none" />
    <path d="M 400 28 l -6 -6 M 400 28 l -6 6" stroke="#1a1a1a" stroke-width="1.5" fill="none" />
    <text x="310" y="16" font-family="'DejaVu Sans', Arial, sans-serif" font-size="16" text-anchor="middle">Footpocket length</text>
    <text x="310" y="42" font-family="'DejaVu Sans', Arial, sans-serif" font-size="16" text-anchor="middle">180 mm</text>
  </g>
  <g data-role="dimension" data-orientation="horizontal">
    <line x1="400" y1="72" x2="400" y2="28" stroke="#1a1a1a" stroke-width="1.5" fill="none" />
    <line x1="1020" y1="72" x2="1020" y2="28" stroke="#1a1a1a" stroke-width="1.5" fill="none" />
    <line x1="400" y1="28" x2="1020" y2="28" stroke="#1a1a1a" stroke-width="1.5" fill="none" />
    <path d="M 400 28 l 6 -6 M 400 28 l 6 6" stroke="#1a1a1a" stroke-width="1.5" fill="none" />
    <path d="M 1020 28 l -6 -6 M 1020 28 l -6 6" stroke="#1a1a1a" stroke-width="1.5" fill="none" />
    <text x="710" y="16" font-family="'DejaVu Sans', Arial, sans-serif" font-size="16" text-anchor="middle">Free blade length</text>
    <text x="710" y="42" font-family="'DejaVu Sans', Arial, sans-serif" font-size="16" text-anchor="middle">620 mm</text>
  </g>
  <g data-role="dimension" data-orientation="vertical">
    <line x1="220" y1="72" x2="184" y2="72" stroke="#1a1a1a" stroke-width="1.5" fill="none" />
    <line x1="220" y1="272" x2="184" y2="272" stroke="#1a1a1a" stroke-width="1.5" fill="none" />
    <line x1="184" y1="72" x2="184" y2="272" stroke="#1a1a1a" stroke-width="1.5" fill="none" />
    <path d="M 184 72 l -6 6 M 184 72 l 6 6" stroke="#1a1a1a" stroke-width="1.5" fill="none" />
    <path d="M 184 272 l -6 -6 M 184 272 l 6 -6" stroke="#1a1a1a" stroke-width="1.5" fill="none" />
    <text x="174" y="172" font-family="'DejaVu Sans', Arial, sans-serif" font-size="16" text-anchor="middle" dominant-baseline="middle" transform="rotate(-90 174 172)">Laminate width 200 mm</text>
  </g>
</svg>