<?xml version="1.0" encoding="UTF-8" standalone="no"?>
<svg
   width="1000"
   height="1000"
   viewBox="0 0 1000 1000"
   version="1.1"
   id="svg20"
   sodipodi:docname="cutting_plan.svg"
   inkscape:version="1.4.2 (ebf0e940, 2025-05-08)"
   xmlns:inkscape="http://www.inkscape.org/namespaces/inkscape"
   xmlns:sodipodi="http://sodipodi.sourceforge.net/DTD/sodipodi-0.dtd"
   xmlns="http://www.w3.org/2000/svg"
   xmlns:svg="http://www.w3.org/2000/svg">
  <defs
     id="defs20" />
  <sodipodi:namedview
     id="namedview20"
     pagecolor="#ffffff"
     bordercolor="#000000"
     borderopacity="0.25"
     inkscape:showpageshadow="2"
     inkscape:pageopacity="0.0"
     inkscape:pagecheckerboard="0"
     inkscape:deskcolor="#d1d1d1"
     inkscape:zoom="0.40272289"
     inkscape:cx="619.5327"
     inkscape:cy="355.08287"
     inkscape:window-width="1440"
     inkscape:window-height="875"
     inkscape:window-x="0"
     inkscape:window-y="29"
     inkscape:window-maximized="1"
     inkscape:current-layer="svg20" />
  <g
     transform="matrix(1,0,0,-1,-6.1963133e-6,999.99999)"
     id="g20">
    <rect
       x="0"
       y="0"
       width="1000"
       height="1000"
       fill="#f8f9fa"
       stroke="#b0b0b0"
       stroke-width="1.5"
       id="rect1" />
    <g
       id="cutting-plan">
      <g
         data-layer="L1"
         data-rotated="true"
         id="g3">
        <g
           transform="rotate(90,100,100)"
           id="g1">
          <path
             d="m 180,0 h 612 l 3.0615,0.609 2.5954,1.7341 1.7341,2.5954 L 800,8 v 184 l -0.609,3.0615 -1.7341,2.5954 -2.5954,1.7341 L 792,200 H 180 8 L 4.9385,199.391 2.3431,197.6569 0.609,195.0615 0,192 V 8 L 0.609,4.9385 2.3431,2.3431 4.9385,0.609 8,0 Z"
             fill="#a9d8bb"
             stroke="#000000"
             stroke-width="5"
             fill-opacity="0.85"
             stroke-linejoin="round"
             data-layer="L1"
             data-role="layer"
             id="path1" />
        </g>
        <g
           transform="matrix(0,1,1,0,0,0)"
           id="g2">
          <text
             x="400"
             y="100"
             text-anchor="middle"
             dominant-baseline="middle"
             font-size="24px"
             fill="#1a1a1a"
             id="text1">L1</text>
        </g>
      </g>
      <g
         transform="translate(0,800)"
         data-layer="L5"
         id="g5">
        <path
           d="m 180,0 h 362 l 3.0615,0.609 2.5954,1.7341 1.7341,2.5954 L 550,8 450.7707,94.915 550,192 l -0.609,3.0615 -1.7341,2.5954 -2.5954,1.7341 L 542,200 H 180 8 L 4.9385,199.391 2.3431,197.6569 0.609,195.0615 0,192 V 8 L 0.609,4.9385 2.3431,2.3431 4.9385,0.609 8,0 Z"
           fill="#9da584"
           stroke="#000000"
           stroke-width="5"
           fill-opacity="0.85"
           stroke-linejoin="round"
           data-layer="L5"
           data-role="layer"
           id="path3" />
        <g
           transform="matrix(0,1,1,0,0,0)"
           id="g4">
          <text
             x="100"
             y="275"
             text-anchor="middle"
             dominant-baseline="middle"
             font-size="24px"
             fill="#1a1a1a"
             id="text3">L5</text>
        </g>
      </g>
      <g
         transform="translate(200)"
         data-layer="L3"
         data-rotated="true"
         id="g8">
        <g
           transform="rotate(90,100,100)"
           id="g6">
          <path
             d="M 180,0 503.2759,1.7237 523.2929,15.4003 756.9667,78.8298 800,99.87 761.1952,113.4507 530.7861,193.5939 504.9669,198.7299 180,200 H 8 L 4.9385,199.391 2.3431,197.6569 0.609,195.0615 0,192 V 8 L 0.609,4.9385 2.3431,2.3431 4.9385,0.609 8,0 Z"
             fill="#e3e5e5"
             stroke="#000000"
             stroke-width="5"
             fill-opacity="0.85"
             stroke-linejoin="round"
             data-layer="L3"
             data-role="layer"
             id="path5" />
        </g>
        <g
           transform="matrix(0,1,1,0,0,0)"
           id="g7">
          <text
             x="400"
             y="100"
             text-anchor="middle"
             dominant-baseline="middle"
             font-size="24px"
             fill="#1a1a1a"
             id="text6">L3</text>
        </g>
      </g>
      <g
         transform="translate(400)"
         data-layer="L6"
         data-rotated="true"
         id="g11">
        <g
           transform="rotate(90,100,100)"
           id="g9">
          <path
             d="m 180,0 h 612 l 3.0615,0.609 2.5954,1.7341 1.7341,2.5954 L 800,8 v 184 l -0.609,3.0615 -1.7341,2.5954 -2.5954,1.7341 L 792,200 H 180 8 L 4.9385,199.391 2.3431,197.6569 0.609,195.0615 0,192 V 8 L 0.609,4.9385 2.3431,2.3431 4.9385,0.609 8,0 Z"
             fill="#b7bcdd"
             stroke="#000000"
             stroke-width="5"
             fill-opacity="0.85"
             stroke-linejoin="round"
             data-layer="L6"
             data-role="layer"
             id="path8" />
        </g>
        <g
           transform="matrix(0,1,1,0,0,0)"
           id="g10">
          <text
             x="400"
             y="100"
             text-anchor="middle"
             dominant-baseline="middle"
             font-size="24px"
             fill="#1a1a1a"
             id="text9">L6</text>
        </g>
      </g>
      <g
         transform="translate(550,800)"
         data-layer="L6"
         id="g13">
        <path
           d="m 180,0 h 262 l 3.0615,0.609 2.5954,1.7341 1.7341,2.5954 L 450,8 352.7501,97.8933 450,192 l -0.609,3.0615 -1.7341,2.5954 -2.5954,1.7341 L 442,200 H 180 8 L 4.9385,199.391 2.3431,197.6569 0.609,195.0615 0,192 V 8 L 0.609,4.9385 2.3431,2.3431 4.9385,0.609 8,0 Z"
           fill="#b7bcdd"
           stroke="#000000"
           stroke-width="5"
           fill-opacity="0.85"
           stroke-linejoin="round"
           data-layer="L6"
           data-role="layer"
           id="path11" />
        <g
           transform="matrix(0,1,1,0,0,0)"
           id="g12">
          <text
             x="100"
             y="225"
             text-anchor="middle"
             dominant-baseline="middle"
             font-size="24px"
             fill="#1a1a1a"
             id="text11">L6</text>
        </g>
      </g>
      <g
         transform="translate(600)"
         data-layer="L2"
         data-rotated="true"
         id="g16">
        <g
           transform="rotate(90,100,100)"
           id="g14">
          <path
             d="M 182.91336,54.690282 792,200 H 180 8 L 4.9385,199.391 2.3431,197.6569 0.609,195.0615 0,192 V 8 0 137.6718 43.8595 180.2202 L 0.91063975,6.8422332 182.04148,54.910382 Z"
             fill="#d2c589"
             stroke="#000000"
             stroke-width="5"
             fill-opacity="0.85"
             stroke-linejoin="round"
             data-layer="L2"
             data-role="layer"
             id="path13"
             sodipodi:nodetypes="cccccccccccccccc" />
        </g>
        <g
           transform="matrix(0,1,1,0,0,0)"
           id="g15">
          <text
             x="396"
             y="100"
             text-anchor="middle"
             dominant-baseline="middle"
             font-size="24px"
             fill="#1a1a1a"
             id="text14">L2</text>
        </g>
      </g>
      <g
         transform="translate(800)"
         data-layer="L4"
         data-rotated="true"
         id="g19">
        <g
           transform="rotate(90,100,100)"
           id="g17">
          <path
             d="m 180,0 h 562 l 3.0615,0.609 2.5954,1.7341 1.7341,2.5954 L 750,8 598.3582,97.2599 750,192 l -0.609,3.0615 -1.7341,2.5954 -2.5954,1.7341 L 742,200 H 180 8 L 4.9385,199.391 2.3431,197.6569 0.609,195.0615 0,192 V 8 L 0.609,4.9385 2.3431,2.3431 4.9385,0.609 8,0 Z"
             fill="#84d6f4"
             stroke="#000000"
             stroke-width="5"
             fill-opacity="0.85"
             stroke-linejoin="round"
             data-layer="L4"
             data-role="layer"
             id="path16" />
        </g>
        <g
           transform="matrix(0,1,1,0,0,0)"
           id="g18">
          <text
             x="375"
             y="100"
             text-anchor="middle"
             dominant-baseline="middle"
             font-size="24px"
             fill="#1a1a1a"
             id="text17">L4</text>
        </g>
      </g>
      <g
         transform="rotate(180,398.75,395.99906)"
         data-layer="L2"
         data-rotated="true"
         id="g23">
        <g
           transform="rotate(90,100,100)"
           id="g21">
          <path
             d="M 182.91336,54.690282 792,200 H 180 8 L 4.9385,199.391 2.3431,197.6569 0.609,195.0615 0,192 V 8 0 137.6718 43.8595 180.2202 L 0.91063975,6.8422332 182.04148,54.910382 Z"
             fill="#d2c589"
             stroke="#000000"
             stroke-width="5"
             fill-opacity="0.85"
             stroke-linejoin="round"
             data-layer="L2"
             data-role="layer"
             id="path20"
             sodipodi:nodetypes="cccccccccccccccc" />
        </g>
        <g
           transform="matrix(0,1,1,0,0,0)"
           id="g22">
          <text
             x="396"
             y="100"
             text-anchor="middle"
             dominant-baseline="middle"
             font-size="24px"
             fill="#1a1a1a"
             id="text21">L2</text>
        </g>
      </g>
    </g>
  </g>
</svg>
