<svg xmlns="http://www.w3.org/2000/svg" viewBox="0 0 1006 902">
<path d="M331.00,188.00 C325.00,202.00 308.17,247.50 295.00,272.00 C281.83,296.50 268.00,315.83 252.00,335.00 C236.00,354.17 217.83,372.00 199.00,387.00 C180.17,402.00 149.00,418.67 139.00,425.00" fill="none" stroke="#fff" stroke-width="75.29" stroke-linecap="round" stroke-linejoin="round"/>

<path d="M657.00,191.00 C662.83,204.67 680.33,250.50 692.00,273.00 C703.67,295.50 712.17,307.83 727.00,326.00 C741.83,344.17 760.83,365.17 781.00,382.00 C801.17,398.83 836.83,419.50 848.00,427.00" fill="none" stroke="#fff" stroke-width="75.47" stroke-linecap="round" stroke-linejoin="round"/>

<path d="M390.00,459.00 C403.00,446.00 450.33,395.33 468.00,381.00 C485.67,366.67 487.67,373.00 496.00,373.00 C504.33,373.00 501.17,366.50 518.00,381.00 C534.83,395.50 583.83,446.83 597.00,460.00" fill="none" stroke="#fff" stroke-width="70.71" stroke-linecap="round" stroke-linejoin="round"/>

<path d="M200.00,727.00 C209.67,717.50 242.33,683.50 258.00,670.00 C273.67,656.50 282.33,652.83 294.00,646.00 C305.67,639.17 312.33,635.17 328.00,629.00 C343.67,622.83 370.67,613.67 388.00,609.00 C405.33,604.33 415.83,603.00 432.00,601.00 C448.17,599.00 460.67,596.50 485.00,597.00 C509.33,597.50 549.17,599.00 578.00,604.00 C606.83,609.00 633.67,617.17 658.00,627.00 C682.33,636.83 708.83,653.67 724.00,663.00 C739.17,672.33 738.00,672.50 749.00,683.00 C760.00,693.50 782.33,718.67 790.00,726.00 C797.67,733.33 794.17,726.83 795.00,727.00" fill="none" stroke="#fff" stroke-width="72.47" stroke-linecap="round" stroke-linejoin="round"/>

</svg>