<?xml version='1.0' encoding='utf-8'?>
<svg xmlns="http://www.w3.org/2000/svg" width="840" height="392" viewBox="0 0 840 392" version="1.1">
  <g transform="translate(220 72)" opacity="0.25" data-layer="L1" data-index="1">
    <path d="M150,0 L150,200 L8,200 L4.9385,199.391 L2.3431,197.6569 L0.609,195.0615 L0,192 L0,8 L0.609,4.9385 L2.3431,2.3431 L4.9385,0.609 L8,0 Z" fill="#000000" stroke="#000000" stroke-width="5" fill-opacity="0.85" stroke-linejoin="round" data-layer="L1" data-role="footpocket" data-join-x="150" />
    <path d="M150,0 L392,0 L395.0615,0.609 L397.6569,2.3431 L399.391,4.9385 L400,8 L400,192 L399.391,195.0615 L397.6569,197.6569 L395.0615,199.391 L392,200 L150,200 Z" fill="#000000" stroke="#000000" stroke-width="5" fill-opacity="0.85" stroke-linejoin="round" data-layer="L1" data-role="blade" />
  </g>
  <g transform="translate(220 72)" opacity="0.25" data-layer="L2" data-index="2">
    <path d="M150,0 L150,200 L8,200 L4.9385,199.391 L2.3431,197.6569 L0.609,195.0615 L0,192 L0,8 L0.609,4.9385 L2.3431,2.3431 L4.9385,0.609 L8,0 Z" fill="#000000" stroke="#000000" stroke-width="5" fill-opacity="0.85" stroke-linejoin="round" data-layer="L2" data-role="footpocket" data-join-x="150" />
    <path d="M150,0 L292,0 L295.0615,0.609 L297.6569,2.3431 L299.391,4.9385 L300,8 L300,192 L299.391,195.0615 L297.6569,197.6569 L295.0615,199.391 L292,200 L150,200 Z" fill="#000000" stroke="#000000" stroke-width="5" fill-opacity="0.85" stroke-linejoin="round" data-layer="L2" data-role="blade" />
  </g>
  <g transform="translate(220 72)" opacity="0.25" data-layer="L3" data-index="3">
    <path d="m 150.75465,101.74536 v 96.50929 H 7.3258498 l -3.0923047,-0.29387 -2.6215147,-0.83679 -1.75154846,-1.2524 -0.61512773,-1.47732 v -88.78854 l 0.61512773,-1.47732 1.75154846,-1.2524 2.6215147,-0.83678 3.0923047,-0.29387 z" fill="#000000" stroke="#000000" stroke-width="3.49071" fill-opacity="0.85" stroke-linejoin="round" data-layer="L3" data-role="footpocket" data-join-x="150" id="path1" />
    <path d="m 149.24196,101.74196 h 243.46757 l 3.08007,0.29389 2.61113,0.83684 1.74462,1.25249 0.61269,1.47742 v 88.7948 l -0.61269,1.47742 -1.74462,1.25249 -2.61113,0.83684 -3.08007,0.29389 H 149.24196 Z" fill="#000000" stroke="#000000" stroke-width="3.48392" fill-opacity="0.85" stroke-linejoin="round" data-layer="L3" data-role="blade" id="path2" />
    <path d="M 150.75465,-0.75464591 V 95.754643 H 7.3258496 L 4.233545,95.460766 1.6120302,94.623988 -0.13951818,93.371579 -0.75464591,91.894269 V 3.1057255 L -0.13951818,1.6284096 1.6120302,0.37600863 4.233545,-0.46077513 7.3258496,-0.75464591 Z" fill="#000000" stroke="#000000" stroke-width="3.49071" fill-opacity="0.85" stroke-linejoin="round" data-layer="L3" data-role="footpocket" data-join-x="150" id="path1-3" transform="translate(0.5,1.5)" />
    <path d="m 149.24196,-0.75804179 h 243.46756 l 3.08008,0.29389147 2.61113,0.83684271 1.74462,1.25248921 0.61269,1.4774199 V 91.897401 l -0.61269,1.477414 -1.74462,1.252492 -2.61113,0.836843 -3.08008,0.293892 H 149.24196 Z" fill="#000000" stroke="#000000" stroke-width="3.48392" fill-opacity="0.85" stroke-linejoin="round" data-layer="L3" data-role="blade" id="path2-9" transform="translate(0.5,1.5)" />
  </g>
  <g transform="translate(220 72)" opacity="0.25" data-layer="L4" data-index="4">
    <path d="M150,0 L150,200 L8,200 L4.9385,199.391 L2.3431,197.6569 L0.609,195.0615 L0,192 L0,8 L0.609,4.9385 L2.3431,2.3431 L4.9385,0.609 L8,0 Z" fill="#000000" stroke="#000000" stroke-width="5" fill-opacity="0.85" stroke-linejoin="round" data-layer="L4" data-role="footpocket" data-join-x="150" />
    <path d="M150,0 L392,0 L395.0615,0.609 L397.6569,2.3431 L399.391,4.9385 L400,8 L400,192 L399.391,195.0615 L397.6569,197.6569 L395.0615,199.391 L392,200 L150,200 Z" fill="#000000" stroke="#000000" stroke-width="5" fill-opacity="0.85" stroke-linejoin="round" data-layer="L4" data-role="blade" />
  </g>
  <g data-role="dimension" data-orientation="horizontal">
    <line x1="220" y1="272" x2="220" y2="300" stroke="#1a1a1a" stroke-width="1.5" fill="none" />
    <line x1="620" y1="272" x2="620" y2="300" stroke="#1a1a1a" stroke-width="1.5" fill="none" />
    <line x1="220" y1="300" x2="620" y2="300" stroke="#1a1a1a" stroke-width="1.5" fill="none" />
    <path d="M 220 300 l 6 -6 M 220 300 l 6 6" stroke="#1a1a1a" stroke-width="1.5" fill="none" />
    <path d="M 620 300 l -6 -6 M 620 300 l -6 6" stroke="#1a1a1a" stroke-width="1.5" fill="none" />
    <text x="420" y="288" font-family="'DejaVu Sans', Arial, sans-serif" font-size="16" text-anchor="middle">Laminate length</text>
    <text x="420" y="314" font-family="'DejaVu Sans', Arial, sans-serif" font-size="16" text-anchor="middle">400 mm</text>
  </g>
  <g data-role="dimension" data-orientation="horizontal">
    <line x1="220" y1="72" x2="220" y2="28" stroke="#1a1a1a" stroke-width="1.5" fill="none" />
    <line x1="370" y1="72" x2="370" y2="28" stroke="#1a1a1a" stroke-width="1.5" fill="none" />
    <line x1="220" y1="28" x2="370" y2="28" stroke="#1a1a1a" stroke-width="1.5" fill="none" />
    <path d="M 220 28 l 6 -6 M 220 28 l 6 6" stroke="#1a1a1a" stroke-width="1.5" fill="none" />
    <path d="M 370 28 l -6 -6 M 370 28 l -6 6" stroke="#1a1a1a" stroke-width="1.5" fill="none" />
    <text x="295" y="16" font-family="'DejaVu Sans', Arial, sans-serif" font-size="16" text-anchor="middle">Footpocket length</text>
    <text x="295" y="42" font-family="'DejaVu Sans', Arial, sans-serif" font-size="16" text-anchor="middle">150 mm</text>
  </g>
  <g data-role="dimension" data-orientation="horizontal">
    <line x1="370" y1="72" x2="370" y2="28" stroke="#1a1a1a" stroke-width="1.5" fill="none" />
    <line x1="620" y1="72" x2="620" y2="28" stroke="#1a1a1a" stroke-width="1.5" fill="none" />
    <line x1="370" y1="28" x2="620" y2="28" stroke="#1a1a1a" stroke-width="1.5" fill="none" />
    <path d="M 370 28 l 6 -6 M 370 28 l 6 6" stroke="#1a1a1a" stroke-width="1.5" fill="none" />
    <path d="M 620 28 l -6 -6 M 620 28 l -6 6" stroke="#1a1a1a" stroke-width="1.5" fill="none" />
    <text x="495" y="16" font-family="'DejaVu Sans', Arial, sans-serif" font-size="16" text-anchor="middle">Free blade length</text>
    <text x="495" y="42" font-family="'DejaVu Sans', Arial, sans-serif" font-size="16" text-anchor="middle">250 mm</text>
  </g>
  <g data-role="dimension" data-orientation="vertical">
    <line x1="220" y1="72" x2="184" y2="72" stroke="#1a1a1a" stroke-width="1.5" fill="none" />
    <line x1="220" y1="272" x2="184" y2="272" stroke="#1a1a1a" stroke-width="1.5" fill="none" />
    <line x1="184" y1="72" x2="184" y2="272" stroke="#1a1a1a" stroke-width="1.5" fill="none" />
    <path d="M 184 72 l -6 6 M 184 72 l 6 6" stroke="#1a1a1a" stroke-width="1.5" fill="none" />
    <path d="M 184 272 l -6 -6 M 184 272 l 6 -6" stroke="#1a1a1a" stroke-width="1.5" fill="none" />
    <text x="174" y="172" font-family="'DejaVu Sans', Arial, sans-serif" font-size="16" text-anchor="middle" dominant-baseline="middle" transform="rotate(-90 174 172)">Laminate width 200 mm</text>
  </g>
</svg>