<?xml version='1.0' encoding='utf-8'?>
<svg xmlns="http://www.w3.org/2000/svg" width="1000" height="800" viewBox="0 0 1000 800" version="1.1"><g transform="matrix(0,1,1,0,0,0)"><rect x="0" y="0" width="800" height="1000" fill="#f8f9fa" stroke="#b0b0b0" stroke-width="1.5" /><g id="cutting-plan"><g transform="translate(0, 0)" data-layer="L1" data-rotated="true"><g transform="translate(200, 0) rotate(90)"><path d="M170,0 L592,0 L595.0615,0.609 L597.6569,2.3431 L599.391,4.9385 L600,8 L600,192 L599.391,195.0615 L597.6569,197.6569 L595.0615,199.391 L592,200 L170,200 L8,200 L4.9385,199.391 L2.3431,197.6569 L0.609,195.0615 L0,192 L0,8 L0.609,4.9385 L2.3431,2.3431 L4.9385,0.609 L8,0 L170,0 Z" fill="#a9d8bb" stroke="#000000" stroke-width="5" fill-opacity="0.85" stroke-linejoin="round" data-layer="L1" data-role="layer" />
    </g><g transform="matrix(0,1,1,0,0,0)"><text x="300" y="100" text-anchor="middle" dominant-baseline="middle" font-size="24" fill="#1a1a1a">L1</text></g></g><g transform="translate(0, 600)" data-layer="L3"><path d="M170,0 L442,0 L445.0615,0.609 L447.6569,2.3431 L449.391,4.9385 L450,8 L450,192 L449.391,195.0615 L447.6569,197.6569 L445.0615,199.391 L442,200 L170,200 L8,200 L4.9385,199.391 L2.3431,197.6569 L0.609,195.0615 L0,192 L0,8 L0.609,4.9385 L2.3431,2.3431 L4.9385,0.609 L8,0 L170,0 Z" fill="#e3e5e5" stroke="#000000" stroke-width="5" fill-opacity="0.85" stroke-linejoin="round" data-layer="L3" data-role="layer" />
    <g transform="matrix(0,1,1,0,0,0)"><text x="100" y="225" text-anchor="middle" dominant-baseline="middle" font-size="24" fill="#1a1a1a">L3</text></g></g><g transform="translate(0, 800)" data-layer="L3 #2"><path d="M170,0 L442,0 L445.0615,0.609 L447.6569,2.3431 L449.391,4.9385 L450,8 L450,192 L449.391,195.0615 L447.6569,197.6569 L445.0615,199.391 L442,200 L170,200 L8,200 L4.9385,199.391 L2.3431,197.6569 L0.609,195.0615 L0,192 L0,8 L0.609,4.9385 L2.3431,2.3431 L4.9385,0.609 L8,0 L170,0 Z" fill="#e3e5e5" stroke="#000000" stroke-width="5" fill-opacity="0.85" stroke-linejoin="round" data-layer="L3" data-role="layer" />
    <g transform="matrix(0,1,1,0,0,0)"><text x="100" y="225" text-anchor="middle" dominant-baseline="middle" font-size="24" fill="#1a1a1a">L3 #2</text></g></g><g transform="translate(200, 0)" data-layer="L4" data-rotated="true"><g transform="translate(200, 0) rotate(90)"><path d="M170,0 L592,0 L595.0615,0.609 L597.6569,2.3431 L599.391,4.9385 L600,8 L600,192 L599.391,195.0615 L597.6569,197.6569 L595.0615,199.391 L592,200 L170,200 L8,200 L4.9385,199.391 L2.3431,197.6569 L0.609,195.0615 L0,192 L0,8 L0.609,4.9385 L2.3431,2.3431 L4.9385,0.609 L8,0 L170,0 Z" fill="#84d6f4" stroke="#000000" stroke-width="5" fill-opacity="0.85" stroke-linejoin="round" data-layer="L4" data-role="layer" />
    </g><g transform="matrix(0,1,1,0,0,0)"><text x="300" y="100" text-anchor="middle" dominant-baseline="middle" font-size="24" fill="#1a1a1a">L4</text></g></g><g transform="translate(400, 0)" data-layer="L1 #2" data-rotated="true"><g transform="translate(200, 0) rotate(90)"><path d="M170,0 L592,0 L595.0615,0.609 L597.6569,2.3431 L599.391,4.9385 L600,8 L600,192 L599.391,195.0615 L597.6569,197.6569 L595.0615,199.391 L592,200 L170,200 L8,200 L4.9385,199.391 L2.3431,197.6569 L0.609,195.0615 L0,192 L0,8 L0.609,4.9385 L2.3431,2.3431 L4.9385,0.609 L8,0 L170,0 Z" fill="#a9d8bb" stroke="#000000" stroke-width="5" fill-opacity="0.85" stroke-linejoin="round" data-layer="L1" data-role="layer" />
    </g><g transform="matrix(0,1,1,0,0,0)"><text x="300" y="100" text-anchor="middle" dominant-baseline="middle" font-size="24" fill="#1a1a1a">L1 #2</text></g></g><g transform="translate(450, 600)" data-layer="L2"><path d="M170,0 L342,0 L345.0615,0.609 L347.6569,2.3431 L349.391,4.9385 L350,8 L350,192 L349.391,195.0615 L347.6569,197.6569 L345.0615,199.391 L342,200 L170,200 L8,200 L4.9385,199.391 L2.3431,197.6569 L0.609,195.0615 L0,192 L0,8 L0.609,4.9385 L2.3431,2.3431 L4.9385,0.609 L8,0 L170,0 Z" fill="#d2c589" stroke="#000000" stroke-width="5" fill-opacity="0.85" stroke-linejoin="round" data-layer="L2" data-role="layer" />
    <g transform="matrix(0,1,1,0,0,0)"><text x="100" y="175" text-anchor="middle" dominant-baseline="middle" font-size="24" fill="#1a1a1a">L2</text></g></g><g transform="translate(450, 800)" data-layer="L2 #2"><path d="M170,0 L342,0 L345.0615,0.609 L347.6569,2.3431 L349.391,4.9385 L350,8 L350,192 L349.391,195.0615 L347.6569,197.6569 L345.0615,199.391 L342,200 L170,200 L8,200 L4.9385,199.391 L2.3431,197.6569 L0.609,195.0615 L0,192 L0,8 L0.609,4.9385 L2.3431,2.3431 L4.9385,0.609 L8,0 L170,0 Z" fill="#d2c589" stroke="#000000" stroke-width="5" fill-opacity="0.85" stroke-linejoin="round" data-layer="L2" data-role="layer" />
    <g transform="matrix(0,1,1,0,0,0)"><text x="100" y="175" text-anchor="middle" dominant-baseline="middle" font-size="24" fill="#1a1a1a">L2 #2</text></g></g><g transform="translate(600, 0)" data-layer="L4 #2" data-rotated="true"><g transform="translate(200, 0) rotate(90)"><path d="M170,0 L592,0 L595.0615,0.609 L597.6569,2.3431 L599.391,4.9385 L600,8 L600,192 L599.391,195.0615 L597.6569,197.6569 L595.0615,199.391 L592,200 L170,200 L8,200 L4.9385,199.391 L2.3431,197.6569 L0.609,195.0615 L0,192 L0,8 L0.609,4.9385 L2.3431,2.3431 L4.9385,0.609 L8,0 L170,0 Z" fill="#84d6f4" stroke="#000000" stroke-width="5" fill-opacity="0.85" stroke-linejoin="round" data-layer="L4" data-role="layer" />
    </g><g transform="matrix(0,1,1,0,0,0)"><text x="300" y="100" text-anchor="middle" dominant-baseline="middle" font-size="24" fill="#1a1a1a">L4 #2</text></g></g></g></g></svg>