<?xml version='1.0' encoding='utf-8'?>
<svg xmlns="http://www.w3.org/2000/svg" width="595.5764" height="323.9008" viewBox="0 0 595.5764 323.9008" version="1.1">
  <g transform="matrix(1, 0, 0.433, -0.25, 34.7767, 291.9008)" data-layer="L1" data-index="1">
    <path d="M150,0 L150,200 L-82.6392,440.0472 L-87.6548,444.6136 L-91.9069,447.2669 L-94.7479,447.603 L-95.7456,445.571 L-95.7456,261.571 L-94.7479,257.48 L-91.9069,251.9531 L-87.6548,245.8316 L-82.6392,240.0472 Z" fill="#a9d8bb" stroke="#000000" stroke-width="5" fill-opacity="0.85" stroke-linejoin="round" data-layer="L1" data-role="footpocket" data-join-x="150" data-footpocket-angle="-25" />
    <path d="M150,0 L392,0 L395.0615,0.609 L397.6569,2.3431 L399.391,4.9385 L400,8 L400,192 L399.391,195.0615 L397.6569,197.6569 L395.0615,199.391 L392,200 L150,200 Z" fill="#a9d8bb" stroke="#000000" stroke-width="5" fill-opacity="0.85" stroke-linejoin="round" data-layer="L1" data-role="blade" />
  </g>
  <g transform="matrix(1, 0, 0.433, -0.25, 34.7767, 231.9008)" data-layer="L2" data-index="2">
    <path d="M150,0 L150,200 L-82.6392,440.0472 L-87.6548,444.6136 L-91.9069,447.2669 L-94.7479,447.603 L-95.7456,445.571 L-95.7456,261.571 L-94.7479,257.48 L-91.9069,251.9531 L-87.6548,245.8316 L-82.6392,240.0472 Z" fill="#d2c589" stroke="#000000" stroke-width="5" fill-opacity="0.85" stroke-linejoin="round" data-layer="L2" data-role="footpocket" data-join-x="150" data-footpocket-angle="-25" />
    <path d="M150,0 L292,0 L295.0615,0.609 L297.6569,2.3431 L299.391,4.9385 L300,8 L300,192 L299.391,195.0615 L297.6569,197.6569 L295.0615,199.391 L292,200 L150,200 Z" fill="#d2c589" stroke="#000000" stroke-width="5" fill-opacity="0.85" stroke-linejoin="round" data-layer="L2" data-role="blade" />
  </g>
  <g transform="matrix(1, 0, 0.433, -0.25, 34.7767, 171.9008)" data-layer="L3" data-index="3">
    <path d="M151.2363,100.4698 L151.2363,196.979 L-83.7437,439.4415 L-88.8099,444.3751 L-93.1047,447.9699 L-95.9742,449.6784 L-96.9819,449.2409 L-96.9819,360.4523 L-95.9742,357.9352 L-93.1047,353.7219 L-88.8099,348.4535 L-83.7437,342.9323 Z" fill="#e3e5e5" stroke="#000000" stroke-width="3.49071" fill-opacity="0.85" stroke-linejoin="round" data-layer="L3" data-role="footpocket" data-join-x="150" id="path1" data-footpocket-angle="-25" />
    <path d="M149.242,101.742 L392.7095,101.742 L395.7896,102.0359 L398.4007,102.8727 L400.1453,104.1252 L400.758,105.6026 L400.758,194.3974 L400.1453,195.8748 L398.4007,197.1273 L395.7896,197.9641 L392.7095,198.258 L149.242,198.258 Z" fill="#e3e5e5" stroke="#000000" stroke-width="3.48392" fill-opacity="0.85" stroke-linejoin="round" data-layer="L3" data-role="blade" id="path2" />
    <path d="M151.7363,-0.5302 L151.7363,95.979 L-83.2437,338.4415 L-88.3099,343.3751 L-92.6047,346.9699 L-95.4742,348.6784 L-96.4819,348.2409 L-96.4819,259.4523 L-95.4742,256.9352 L-92.6047,252.7219 L-88.3099,247.4535 L-83.2437,241.9323 Z" fill="#e3e5e5" stroke="#000000" stroke-width="3.49071" fill-opacity="0.85" stroke-linejoin="round" data-layer="L3" data-role="footpocket" data-join-x="150.5" id="path1-3" data-footpocket-angle="-25" />
    <path d="M149.742,0.742 L393.2095,0.742 L396.2896,1.0358 L398.9007,1.8727 L400.6454,3.1252 L401.258,4.6026 L401.258,93.3974 L400.6454,94.8748 L398.9007,96.1273 L396.2896,96.9642 L393.2095,97.258 L149.742,97.258 Z" fill="#e3e5e5" stroke="#000000" stroke-width="3.48392" fill-opacity="0.85" stroke-linejoin="round" data-layer="L3" data-role="blade" id="path2-9" />
  </g>
  <g transform="matrix(1, 0, 0.433, -0.25, 34.7767, 111.9008)" data-layer="L4" data-index="4">
    <path d="M150,0 L150,200 L-82.6392,440.0472 L-87.6548,444.6136 L-91.9069,447.2669 L-94.7479,447.603 L-95.7456,445.571 L-95.7456,261.571 L-94.7479,257.48 L-91.9069,251.9531 L-87.6548,245.8316 L-82.6392,240.0472 Z" fill="#84d6f4" stroke="#000000" stroke-width="5" fill-opacity="0.85" stroke-linejoin="round" data-layer="L4" data-role="footpocket" data-join-x="150" data-footpocket-angle="-25" />
    <path d="M150,0 L392,0 L395.0615,0.609 L397.6569,2.3431 L399.391,4.9385 L400,8 L400,192 L399.391,195.0615 L397.6569,197.6569 L395.0615,199.391 L392,200 L150,200 Z" fill="#84d6f4" stroke="#000000" stroke-width="5" fill-opacity="0.85" stroke-linejoin="round" data-layer="L4" data-role="blade" />
  </g>
</svg>